<svg width="40" height="40" viewBox="0 0 40 40" fill="none" xmlns="http://www.w3.org/2000/svg">
  <rect width="40" height="40" rx="20" fill="#0ACF83" />
  <path d="M20 12C17.7909 12 16 13.7909 16 16C16 18.2091 17.7909 20 20 20C22.2091 20 24 18.2091 24 16C24 13.7909 22.2091 12 20 12Z" fill="white" />
  <path d="M14 26C14 22.6863 16.6863 20 20 20C23.3137 20 26 22.6863 26 26V28H14V26Z" fill="white" />
</svg> 
  <rect width="40" height="40" rx="20" fill="#0ACF83" />
  <path d="M20 12C17.7909 12 16 13.7909 16 16C16 18.2091 17.7909 20 20 20C22.2091 20 24 18.2091 24 16C24 13.7909 22.2091 12 20 12Z" fill="white" />
  <path d="M14 26C14 22.6863 16.6863 20 20 20C23.3137 20 26 22.6863 26 26V28H14V26Z" fill="white" />
</svg> 
  <rect width="40" height="40" rx="20" fill="#0ACF83" />
  <path d="M20 12C17.7909 12 16 13.7909 16 16C16 18.2091 17.7909 20 20 20C22.2091 20 24 18.2091 24 16C24 13.7909 22.2091 12 20 12Z" fill="white" />
  <path d="M14 26C14 22.6863 16.6863 20 20 20C23.3137 20 26 22.6863 26 26V28H14V26Z" fill="white" />
</svg> 
  <rect width="40" height="40" rx="20" fill="#0ACF83" />
  <path d="M20 12C17.7909 12 16 13.7909 16 16C16 18.2091 17.7909 20 20 20C22.2091 20 24 18.2091 24 16C24 13.7909 22.2091 12 20 12Z" fill="white" />
  <path d="M14 26C14 22.6863 16.6863 20 20 20C23.3137 20 26 22.6863 26 26V28H14V26Z" fill="white" />
</svg> 